<svg xmlns="http://www.w3.org/2000/svg" xmlns:xlink="http://www.w3.org/1999/xlink" width="500" zoomAndPan="magnify" viewBox="0 0 375 374.999991" height="500" preserveAspectRatio="xMidYMid meet" version="1.0"><defs><g/><clipPath id="ffc4d58beb"><path d="M 281 238 L 293 238 L 293 260 L 281 260 Z M 281 238 " clip-rule="nonzero"/></clipPath><clipPath id="3cfdc645c0"><path d="M 220.445312 249.1875 L 308.523438 211.007812 L 331.195312 263.304688 L 243.113281 301.484375 Z M 220.445312 249.1875 " clip-rule="nonzero"/></clipPath><clipPath id="c7ac9ebd60"><path d="M 220.445312 249.1875 L 308.523438 211.007812 L 331.195312 263.304688 L 243.113281 301.484375 Z M 220.445312 249.1875 " clip-rule="nonzero"/></clipPath><clipPath id="9c40d79fcf"><path d="M 220.445312 249.1875 L 308.523438 211.007812 L 331.195312 263.304688 L 243.113281 301.484375 Z M 220.445312 249.1875 " clip-rule="nonzero"/></clipPath><clipPath id="e502306e71"><path d="M 242 252 L 295 252 L 295 302 L 242 302 Z M 242 252 " clip-rule="nonzero"/></clipPath><clipPath id="0af51e18bb"><path d="M 220.445312 249.1875 L 308.523438 211.007812 L 331.195312 263.304688 L 243.113281 301.484375 Z M 220.445312 249.1875 " clip-rule="nonzero"/></clipPath><clipPath id="3bfda1a085"><path d="M 220.445312 249.1875 L 308.523438 211.007812 L 331.195312 263.304688 L 243.113281 301.484375 Z M 220.445312 249.1875 " clip-rule="nonzero"/></clipPath><clipPath id="e692dffda8"><path d="M 220.445312 249.1875 L 308.523438 211.007812 L 331.195312 263.304688 L 243.113281 301.484375 Z M 220.445312 249.1875 " clip-rule="nonzero"/></clipPath><clipPath id="90974a64f2"><path d="M 286 212 L 311 212 L 311 241 L 286 241 Z M 286 212 " clip-rule="nonzero"/></clipPath><clipPath id="93708af883"><path d="M 220.445312 249.1875 L 308.523438 211.007812 L 331.195312 263.304688 L 243.113281 301.484375 Z M 220.445312 249.1875 " clip-rule="nonzero"/></clipPath><clipPath id="ed888b4ae8"><path d="M 220.445312 249.1875 L 308.523438 211.007812 L 331.195312 263.304688 L 243.113281 301.484375 Z M 220.445312 249.1875 " clip-rule="nonzero"/></clipPath><clipPath id="89db338929"><path d="M 220.445312 249.1875 L 308.523438 211.007812 L 331.195312 263.304688 L 243.113281 301.484375 Z M 220.445312 249.1875 " clip-rule="nonzero"/></clipPath><clipPath id="eaa3d5bff3"><path d="M 121.589844 125.488281 L 264.839844 125.488281 L 264.839844 268.738281 L 121.589844 268.738281 Z M 121.589844 125.488281 " clip-rule="nonzero"/></clipPath><clipPath id="2ac2799f17"><path d="M 72 201.769531 L 140.859375 201.769531 L 140.859375 302 L 72 302 Z M 72 201.769531 " clip-rule="nonzero"/></clipPath></defs><g fill="#000000" fill-opacity="1"><g transform="translate(321.552786, 250.133949)"><g/></g></g><g fill="#000000" fill-opacity="1"><g transform="translate(304.938677, 277.600885)"><g/></g></g><g fill="#000000" fill-opacity="1"><g transform="translate(282.795549, 300.841837)"><g/></g></g><g fill="#000000" fill-opacity="1"><g transform="translate(256.164029, 318.76455)"><g/></g></g><g fill="#000000" fill-opacity="1"><g transform="translate(226.295785, 330.526713)"><g/></g></g><g fill="#000000" fill-opacity="1"><g transform="translate(194.594506, 335.575516)"><g/></g></g><g fill="#000000" fill-opacity="1"><g transform="translate(162.550113, 333.6737)"><g/></g></g><g fill="#000000" fill-opacity="1"><g transform="translate(131.668573, 324.910576)"><g/></g></g><g fill="#000000" fill-opacity="1"><g transform="translate(103.40127, 309.698065)"><g/></g></g><g fill="#000000" fill-opacity="1"><g transform="translate(79.076695, 288.75108)"><g/></g></g><g fill="#000000" fill-opacity="1"><g transform="translate(59.838041, 263.054076)"><g/></g></g><g fill="#000000" fill-opacity="1"><g transform="translate(46.589476, 233.814801)"><g/></g></g><g fill="#000000" fill-opacity="1"><g transform="translate(39.953647, 202.40735)"><g/></g></g><g fill="#000000" fill-opacity="1"><g transform="translate(40.242439, 170.307866)"><g/></g></g><g fill="#000000" fill-opacity="1"><g transform="translate(47.442254, 139.024899)"><g/></g></g><g fill="#000000" fill-opacity="1"><g transform="translate(61.214736, 110.028687)"><g/></g></g><g fill="#000000" fill-opacity="1"><g transform="translate(80.912611, 84.681999)"><g/></g></g><g fill="#000000" fill-opacity="1"><g transform="translate(105.610108, 64.176048)"><g/></g></g><g fill="#000000" fill-opacity="1"><g transform="translate(134.14655, 49.474567)"><g/></g></g><g fill="#000000" fill-opacity="1"><g transform="translate(165.180735, 41.268487)"><g/></g></g><g fill="#000000" fill-opacity="1"><g transform="translate(197.25418, 39.943479)"><g/></g></g><g fill="#000000" fill-opacity="1"><g transform="translate(228.859476, 45.561814)"><g/></g></g><g fill="#000000" fill-opacity="1"><g transform="translate(258.511287, 57.859443)"><g/></g></g><g fill="#000000" fill-opacity="1"><g transform="translate(284.816027, 76.258406)"><g/></g></g><g fill="#000000" fill-opacity="1"><g transform="translate(306.537435, 99.894)"><g/></g></g><g fill="#000000" fill-opacity="1"><g transform="translate(322.654653, 127.655411)"><g/></g></g><g fill="#000000" fill-opacity="1"><g transform="translate(332.410267, 158.237911)"><g/></g></g><g fill="#000000" fill-opacity="1"><g transform="translate(335.345693, 190.204202)"><g/></g></g><g fill="#000000" fill-opacity="1"><g transform="translate(331.64456, 221.742731)"><g><path d="M -0.796875 2.59375 L 22.828125 9.828125 L 21.1875 15.171875 L 2.21875 9.359375 L -0.875 19.484375 L -5.53125 18.0625 Z M -0.796875 2.59375 "/></g></g></g><g fill="#000000" fill-opacity="1"><g transform="translate(317.049897, 260.111957)"><g><path d="M -15.203125 22.234375 L -11.828125 17.3125 L -6.78125 18.421875 L -0.328125 8.96875 L -3.1875 4.65625 L 0.0625 -0.09375 L 14.390625 22.703125 L 11.15625 27.453125 Z M 8.0625 21.671875 L 2.34375 13.015625 L -2.0625 19.453125 Z M 8.0625 21.671875 "/></g></g></g><g fill="#000000" fill-opacity="1"><g transform="translate(287.064953, 297.710682)"><g><path d="M 3.796875 28.1875 C 1.617188 29.84375 -0.425781 30.707031 -2.34375 30.78125 C -4.269531 30.851562 -5.8125 30.132812 -6.96875 28.625 C -7.769531 27.570312 -8.160156 26.425781 -8.140625 25.1875 C -8.128906 23.945312 -7.707031 22.789062 -6.875 21.71875 C -8.320312 22.445312 -9.753906 22.644531 -11.171875 22.3125 C -12.585938 21.976562 -13.785156 21.164062 -14.765625 19.875 C -16.046875 18.195312 -16.394531 16.363281 -15.8125 14.375 C -15.226562 12.382812 -13.789062 10.519531 -11.5 8.78125 L -2.15625 1.65625 L 12.828125 21.296875 Z M -2.015625 20.09375 C -2.859375 20.738281 -3.367188 21.429688 -3.546875 22.171875 C -3.734375 22.921875 -3.566406 23.640625 -3.046875 24.328125 C -2.523438 25.015625 -1.882812 25.363281 -1.125 25.375 C -0.363281 25.382812 0.429688 25.0625 1.265625 24.40625 L 5.640625 21.0625 L 2.359375 16.75 Z M -8.203125 11.984375 C -9.253906 12.785156 -9.914062 13.625 -10.1875 14.5 C -10.46875 15.375 -10.320312 16.1875 -9.75 16.9375 C -9.207031 17.644531 -8.476562 17.976562 -7.5625 17.9375 C -6.65625 17.90625 -5.6875 17.472656 -4.65625 16.640625 L -0.28125 13.296875 L -3.828125 8.640625 Z M -8.203125 11.984375 "/></g></g></g><g fill="#000000" fill-opacity="1"><g transform="translate(248.256387, 323.22126)"><g><path d="M -4.453125 27.65625 C -6.835938 28.46875 -9.128906 28.703125 -11.328125 28.359375 C -13.535156 28.015625 -15.460938 27.132812 -17.109375 25.71875 C -18.753906 24.3125 -19.96875 22.472656 -20.75 20.203125 C -21.53125 17.929688 -21.695312 15.726562 -21.25 13.59375 C -20.8125 11.457031 -19.8125 9.570312 -18.25 7.9375 C -16.695312 6.300781 -14.707031 5.0625 -12.28125 4.21875 L -2.578125 0.890625 L 5.453125 24.25 Z M -11.09375 8.78125 C -12.375 9.21875 -13.425781 9.921875 -14.25 10.890625 C -15.082031 11.867188 -15.597656 13 -15.796875 14.28125 C -16.003906 15.570312 -15.867188 16.914062 -15.390625 18.3125 C -14.898438 19.71875 -14.15625 20.867188 -13.15625 21.765625 C -12.164062 22.671875 -11.035156 23.25 -9.765625 23.5 C -8.503906 23.75 -7.203125 23.640625 -5.859375 23.171875 L -1.328125 21.625 L -6.3125 7.140625 Z M -11.09375 8.78125 "/></g></g></g><g fill="#000000" fill-opacity="1"><g transform="translate(200.85567, 335.159353)"><g><path d="M -2.71875 0.140625 L -1.375 24.8125 L -6.9375 25.125 L -8.28125 0.453125 Z M -2.71875 0.140625 "/></g></g></g><g fill="#000000" fill-opacity="1"><g transform="translate(167.86144, 334.986085)"><g><path d="M -21.5625 7.953125 L -26.28125 6.890625 L -24.1875 -2.46875 C -22.695312 -3.125 -20.988281 -3.539062 -19.0625 -3.71875 C -17.132812 -3.90625 -15.347656 -3.816406 -13.703125 -3.453125 C -11.285156 -2.910156 -9.21875 -1.875 -7.5 -0.34375 C -5.789062 1.175781 -4.585938 3.003906 -3.890625 5.140625 C -3.203125 7.285156 -3.117188 9.535156 -3.640625 11.890625 C -4.160156 14.203125 -5.203125 16.175781 -6.765625 17.8125 C -8.335938 19.445312 -10.25 20.578125 -12.5 21.203125 C -14.75 21.835938 -17.101562 21.882812 -19.5625 21.34375 C -21.351562 20.9375 -23.03125 20.222656 -24.59375 19.203125 C -26.164062 18.179688 -27.453125 16.976562 -28.453125 15.59375 L -24.5 12.390625 C -23.800781 13.441406 -22.914062 14.335938 -21.84375 15.078125 C -20.78125 15.828125 -19.664062 16.332031 -18.5 16.59375 C -17.09375 16.90625 -15.734375 16.847656 -14.421875 16.421875 C -13.117188 16.003906 -12.003906 15.289062 -11.078125 14.28125 C -10.148438 13.28125 -9.53125 12.066406 -9.21875 10.640625 C -8.894531 9.210938 -8.941406 7.832031 -9.359375 6.5 C -9.773438 5.164062 -10.484375 4.03125 -11.484375 3.09375 C -12.492188 2.15625 -13.703125 1.53125 -15.109375 1.21875 C -15.816406 1.0625 -16.609375 1.007812 -17.484375 1.0625 C -18.367188 1.113281 -19.25 1.265625 -20.125 1.515625 Z M -21.5625 7.953125 "/></g></g></g><g fill="#000000" fill-opacity="1"><g transform="translate(121.961336, 320.563623)"><g/></g></g><g fill="#000000" fill-opacity="1"><g transform="translate(95.015551, 303.868348)"><g><path d="M -19.109375 2.140625 C -20.515625 0.460938 -21.289062 -1.238281 -21.4375 -2.96875 C -21.59375 -4.707031 -21.039062 -6.265625 -19.78125 -7.640625 C -18.726562 -8.785156 -17.488281 -9.53125 -16.0625 -9.875 C -14.644531 -10.21875 -13.15625 -10.128906 -11.59375 -9.609375 C -10.039062 -9.097656 -8.53125 -8.171875 -7.0625 -6.828125 C -5.789062 -5.660156 -4.707031 -4.304688 -3.8125 -2.765625 C -2.914062 -1.222656 -2.328125 0.265625 -2.046875 1.703125 L -6.421875 3.3125 C -6.597656 1.988281 -6.96875 0.769531 -7.53125 -0.34375 C -8.101562 -1.46875 -8.84375 -2.441406 -9.75 -3.265625 C -10.894531 -4.316406 -11.988281 -4.898438 -13.03125 -5.015625 C -14.070312 -5.140625 -14.96875 -4.789062 -15.71875 -3.96875 C -16.46875 -3.15625 -16.722656 -2.25 -16.484375 -1.25 C -16.242188 -0.257812 -15.539062 0.765625 -14.375 1.828125 L -11.4375 4.53125 L -13.59375 6.890625 L -22.1875 7.078125 L -14.875 13.796875 L -17.90625 17.15625 L -30.359375 5.734375 L -28.09375 3.265625 L -18.3125 3.140625 Z M -19.109375 2.140625 "/></g></g></g><g fill="#000000" fill-opacity="1"><g transform="translate(65.633207, 273.012189)"><g><path d="M -13.421875 -23.359375 L -10.4375 -18.1875 L -13.640625 -14.109375 L -7.9375 -4.1875 L -2.8125 -4.890625 L 0.046875 0.09375 L -26.71875 3.078125 L -29.578125 -1.90625 Z M -23.015625 -2.171875 L -12.734375 -3.546875 L -16.625 -10.3125 Z M -23.015625 -2.171875 "/></g></g></g><g fill="#000000" fill-opacity="1"><g transform="translate(46.949222, 139.300049)"><g><path d="M 1.046875 -2.5 L -21.71875 -12.078125 L -19.546875 -17.21875 L -1.28125 -9.53125 L 2.828125 -19.296875 L 7.328125 -17.40625 Z M 1.046875 -2.5 "/></g></g></g><g fill="#000000" fill-opacity="1"><g transform="translate(65.328424, 102.590293)"><g><path d="M 17.359375 -20.609375 L 13.515625 -16.03125 L 8.59375 -17.65625 L 1.21875 -8.90625 L 3.640625 -4.3125 L -0.078125 0.078125 L -12.046875 -24.03125 L -8.34375 -28.4375 Z M -5.859375 -22.375 L -1.03125 -13.1875 L 4 -19.15625 Z M -5.859375 -22.375 "/></g></g></g><g fill="#000000" fill-opacity="1"><g transform="translate(98.931647, 68.191783)"><g><path d="M -0.9375 -28.421875 C 1.382812 -29.847656 3.503906 -30.503906 5.421875 -30.390625 C 7.347656 -30.273438 8.8125 -29.40625 9.8125 -27.78125 C 10.5 -26.65625 10.769531 -25.476562 10.625 -24.25 C 10.488281 -23.019531 9.953125 -21.910156 9.015625 -20.921875 C 10.535156 -21.492188 11.976562 -21.546875 13.34375 -21.078125 C 14.71875 -20.609375 15.832031 -19.679688 16.6875 -18.296875 C 17.789062 -16.492188 17.953125 -14.632812 17.171875 -12.71875 C 16.390625 -10.800781 14.773438 -9.085938 12.328125 -7.578125 L 2.3125 -1.421875 L -10.625 -22.46875 Z M 4.03125 -19.78125 C 4.9375 -20.34375 5.515625 -20.984375 5.765625 -21.703125 C 6.023438 -22.429688 5.925781 -23.164062 5.46875 -23.90625 C 5.019531 -24.632812 4.414062 -25.039062 3.65625 -25.125 C 2.90625 -25.21875 2.082031 -24.972656 1.1875 -24.390625 L -3.5 -21.515625 L -0.65625 -16.90625 Z M 9.375 -11.09375 C 10.5 -11.789062 11.238281 -12.5625 11.59375 -13.40625 C 11.957031 -14.25 11.894531 -15.066406 11.40625 -15.859375 C 10.9375 -16.628906 10.242188 -17.039062 9.328125 -17.09375 C 8.421875 -17.144531 7.410156 -16.804688 6.296875 -16.078125 L 1.609375 -13.203125 L 4.6875 -8.21875 Z M 9.375 -11.09375 "/></g></g></g><g fill="#000000" fill-opacity="1"><g transform="translate(140.109081, 46.706642)"><g><path d="M 7.21875 -27.0625 C 9.664062 -27.632812 11.96875 -27.632812 14.125 -27.0625 C 16.289062 -26.5 18.117188 -25.429688 19.609375 -23.859375 C 21.109375 -22.296875 22.128906 -20.347656 22.671875 -18.015625 C 23.222656 -15.671875 23.164062 -13.460938 22.5 -11.390625 C 21.84375 -9.316406 20.660156 -7.539062 18.953125 -6.0625 C 17.242188 -4.582031 15.140625 -3.550781 12.640625 -2.96875 L 2.640625 -0.625 L -3 -24.671875 Z M 11.90625 -7.609375 C 13.238281 -7.921875 14.363281 -8.519531 15.28125 -9.40625 C 16.195312 -10.289062 16.816406 -11.363281 17.140625 -12.625 C 17.472656 -13.882812 17.472656 -15.234375 17.140625 -16.671875 C 16.796875 -18.117188 16.175781 -19.34375 15.28125 -20.34375 C 14.394531 -21.34375 13.332031 -22.03125 12.09375 -22.40625 C 10.851562 -22.78125 9.546875 -22.804688 8.171875 -22.484375 L 3.5 -21.375 L 7 -6.453125 Z M 11.90625 -7.609375 "/></g></g></g><g fill="#000000" fill-opacity="1"><g transform="translate(188.462674, 39.587595)"><g><path d="M 2.71875 0.125 L 3.859375 -24.546875 L 9.421875 -24.28125 L 8.28125 0.390625 Z M 2.71875 0.125 "/></g></g></g><g fill="#000000" fill-opacity="1"><g transform="translate(221.270676, 43.072481)"><g><path d="M 22.25 -5.734375 L 26.828125 -4.21875 L 23.8125 4.875 C 22.257812 5.394531 20.515625 5.648438 18.578125 5.640625 C 16.648438 5.628906 14.882812 5.359375 13.28125 4.828125 C 10.925781 4.046875 8.976562 2.804688 7.4375 1.109375 C 5.894531 -0.578125 4.878906 -2.519531 4.390625 -4.71875 C 3.910156 -6.925781 4.050781 -9.175781 4.8125 -11.46875 C 5.550781 -13.71875 6.785156 -15.578125 8.515625 -17.046875 C 10.242188 -18.523438 12.257812 -19.460938 14.5625 -19.859375 C 16.863281 -20.253906 19.210938 -20.054688 21.609375 -19.265625 C 23.347656 -18.691406 24.945312 -17.816406 26.40625 -16.640625 C 27.863281 -15.472656 29.019531 -14.144531 29.875 -12.65625 L 25.625 -9.859375 C 25.03125 -10.984375 24.238281 -11.96875 23.25 -12.8125 C 22.257812 -13.65625 21.195312 -14.265625 20.0625 -14.640625 C 18.695312 -15.097656 17.34375 -15.179688 16 -14.890625 C 14.664062 -14.609375 13.484375 -14.015625 12.453125 -13.109375 C 11.429688 -12.203125 10.691406 -11.054688 10.234375 -9.671875 C 9.773438 -8.285156 9.679688 -6.90625 9.953125 -5.53125 C 10.234375 -4.164062 10.828125 -2.960938 11.734375 -1.921875 C 12.640625 -0.890625 13.773438 -0.144531 15.140625 0.3125 C 15.828125 0.539062 16.613281 0.671875 17.5 0.703125 C 18.382812 0.734375 19.273438 0.671875 20.171875 0.515625 Z M 22.25 -5.734375 "/></g></g></g><g fill="#000000" fill-opacity="1"><g transform="translate(265.498986, 62.030822)"><g/></g></g><g fill="#000000" fill-opacity="1"><g transform="translate(290.633191, 81.347112)"><g><path d="M 19.234375 -0.203125 C 20.472656 1.597656 21.078125 3.367188 21.046875 5.109375 C 21.015625 6.847656 20.300781 8.34375 18.90625 9.59375 C 17.738281 10.625 16.429688 11.238281 14.984375 11.4375 C 13.535156 11.644531 12.0625 11.410156 10.5625 10.734375 C 9.070312 10.066406 7.664062 8.988281 6.34375 7.5 C 5.195312 6.21875 4.253906 4.765625 3.515625 3.140625 C 2.773438 1.515625 2.335938 -0.0234375 2.203125 -1.484375 L 6.71875 -2.65625 C 6.769531 -1.3125 7.015625 -0.0546875 7.453125 1.109375 C 7.898438 2.273438 8.535156 3.316406 9.359375 4.234375 C 10.390625 5.390625 11.414062 6.078125 12.4375 6.296875 C 13.46875 6.523438 14.394531 6.273438 15.21875 5.546875 C 16.050781 4.804688 16.398438 3.925781 16.265625 2.90625 C 16.128906 1.882812 15.535156 0.785156 14.484375 -0.390625 L 11.828125 -3.375 L 14.21875 -5.484375 L 22.78125 -4.828125 L 16.171875 -12.234375 L 19.546875 -15.28125 L 30.796875 -2.65625 L 28.28125 -0.421875 L 18.53125 -1.28125 Z M 19.234375 -0.203125 "/></g></g></g><g fill="#000000" fill-opacity="1"><g transform="translate(316.769934, 114.997378)"><g><path d="M 11 24.59375 L 8.5625 19.140625 L 12.15625 15.421875 L 7.484375 4.984375 L 2.296875 5.15625 L -0.046875 -0.09375 L 26.890625 -0.390625 L 29.234375 4.859375 Z M 22.703125 4.46875 L 12.3125 4.796875 L 15.5 11.921875 Z M 22.703125 4.46875 "/></g></g></g><path fill="#000000" d="M 163.507812 72.589844 C 167.667969 61.042969 178.574219 55.71875 186.332031 54.355469 C 193.3125 53.136719 206.347656 56.851562 211.40625 63.984375 C 216.464844 71.121094 218.601562 77.007812 219.957031 78.589844 C 221.300781 80.179688 223.433594 83.574219 223.101562 85.5 C 222.761719 87.425781 223.777344 91.273438 224.675781 93.199219 C 225.574219 95.125 227.59375 101.128906 225.574219 102.375 C 223.550781 103.617188 220.964844 104.183594 221.753906 105.765625 C 222.539062 107.351562 224 109.390625 223.777344 110.070312 C 223.550781 110.75 223.101562 111.316406 223.101562 111.316406 C 223.101562 111.316406 223.550781 112.113281 223.328125 112.789062 C 223.101562 113.472656 222.992188 113.472656 222.539062 113.472656 C 222.085938 113.472656 221.863281 113.359375 221.863281 113.019531 C 221.863281 112.675781 221.640625 111.996094 221.640625 111.996094 C 221.640625 111.996094 221.1875 111.542969 220.742188 112.226562 C 220.292969 112.902344 219.957031 112.789062 219.503906 112.675781 C 219.050781 112.5625 219.050781 111.769531 218.488281 112.449219 C 217.925781 113.128906 217.703125 114.035156 217.140625 113.691406 C 216.574219 113.359375 216.238281 112.789062 215.675781 113.582031 C 215.117188 114.375 215.902344 114.9375 215.792969 115.507812 C 215.675781 116.074219 215.34375 116.980469 214.445312 116.867188 C 213.542969 116.75 213.207031 114.488281 213.207031 114.488281 L 212.53125 115.050781 C 212.53125 115.050781 213.542969 116.867188 213.207031 117.542969 C 212.867188 118.226562 211.632812 118.902344 211.066406 118.675781 C 210.507812 118.457031 210.167969 117.996094 210.167969 117.996094 C 210.167969 117.996094 209.722656 119.128906 209.046875 118.902344 C 208.371094 118.675781 207.917969 118.453125 207.917969 118.453125 C 207.917969 118.453125 206.910156 119.019531 206.234375 118.902344 C 205.5625 118.789062 205.222656 118.226562 205.222656 118.226562 C 205.222656 118.226562 204.324219 118.566406 203.535156 118.339844 C 202.746094 118.109375 202.410156 117.203125 202.410156 117.203125 C 202.410156 117.203125 201.285156 117.773438 200.722656 117.429688 C 200.164062 117.089844 199.933594 116.75 200.050781 115.84375 C 200.164062 114.9375 200.503906 114.152344 200.503906 114.152344 L 199.601562 113.359375 L 199.601562 111.769531 C 199.601562 111.769531 198.136719 112.222656 197.128906 111.652344 C 196.113281 111.089844 195.890625 110.183594 194.316406 110.070312 C 192.742188 109.960938 191.164062 110.183594 189.476562 109.054688 C 187.792969 107.921875 187.457031 107.808594 187.457031 107.808594 C 187.457031 107.808594 185.09375 109.960938 184.648438 110.523438 C 184.195312 111.089844 183.519531 111.996094 182.957031 111.996094 C 182.398438 111.996094 176.777344 111.996094 171.492188 103.957031 C 166.203125 95.917969 159.347656 84.144531 163.507812 72.589844 Z M 219.839844 95.007812 C 220.058594 95.691406 221.414062 95.574219 221.863281 94.785156 C 222.3125 93.992188 223.210938 93.539062 222.988281 92.632812 C 222.761719 91.730469 222.085938 90.484375 222.085938 90.484375 L 221.082031 89.800781 L 221.414062 88.894531 C 221.414062 88.894531 221.972656 88.554688 221.640625 88.222656 C 221.304688 87.878906 221.304688 87.878906 221.304688 87.878906 L 221.082031 87.199219 L 221.082031 86.746094 L 221.414062 86.179688 L 221.1875 85.613281 L 221.640625 85.386719 C 221.640625 85.386719 222.429688 85.160156 222.3125 84.824219 C 222.199219 84.484375 221.863281 83.917969 221.863281 83.917969 L 221.1875 83.800781 C 221.1875 83.800781 220.058594 83.011719 218.828125 83.125 C 217.59375 83.238281 217.59375 83.238281 217.59375 83.238281 L 217.480469 82.332031 L 216.804688 83.460938 C 216.804688 83.460938 215.792969 84.933594 215.34375 85.5 C 214.890625 86.070312 214.332031 89.691406 215.792969 90.597656 C 217.253906 91.5 217.925781 92.183594 218.492188 93.089844 C 219.050781 93.992188 219.613281 94.332031 219.839844 95.007812 Z M 217.023438 103.839844 C 217.480469 103.839844 219.050781 102.484375 219.050781 101.578125 C 219.050781 100.675781 218.9375 98.40625 218.9375 97.046875 C 218.9375 95.691406 218.71875 94.671875 218.269531 95.007812 C 217.8125 95.351562 217.8125 94.671875 217.253906 94.898438 C 216.691406 95.125 215.675781 95.351562 215.675781 96.253906 C 215.675781 97.160156 215.566406 98.863281 215.007812 99.539062 C 214.445312 100.21875 213.886719 101.351562 213.886719 102.144531 C 213.886719 102.144531 216.574219 103.839844 217.023438 103.839844 Z M 213.207031 103.957031 C 213.429688 104.867188 213.886719 105.652344 214.332031 105.429688 C 214.777344 105.199219 215.007812 104.867188 215.007812 104.867188 C 214.554688 104.40625 214.105469 102.714844 214.105469 102.714844 C 214.105469 102.714844 212.980469 103.050781 213.207031 103.957031 Z M 210.15625 116.785156 L 210.230469 115.4375 L 210.167969 115.382812 L 209.402344 115.75 Z M 207.816406 117.015625 L 208.003906 115.691406 L 206.984375 115.671875 Z M 204.40625 116.335938 L 204.890625 116.746094 C 204.890625 116.746094 205.03125 116.117188 205.03125 116.039062 L 205.109375 116.023438 L 204.175781 115.730469 Z M 197.800781 98.636719 C 198.589844 99.429688 198.816406 100.109375 201.0625 100.558594 C 203.3125 101.015625 205.222656 101.464844 206.6875 100.332031 C 208.148438 99.199219 209.828125 98.40625 209.722656 97.160156 C 209.605469 95.917969 209.496094 94.445312 209.496094 93.765625 C 209.496094 93.085938 209.046875 91.5 209.046875 91.5 C 209.046875 91.5 208.707031 91.160156 208.371094 91.613281 C 208.035156 92.070312 208.035156 92.070312 208.035156 92.070312 C 208.035156 92.070312 207.472656 92.292969 207.472656 91.953125 C 207.472656 91.613281 207.023438 90.707031 207.023438 90.707031 L 206.910156 89.578125 L 206.6875 87.425781 L 205.902344 87.082031 L 204.996094 86.746094 L 204.773438 86.066406 C 204.773438 86.066406 204.324219 86.179688 204.324219 86.519531 C 204.324219 86.859375 204.097656 87.425781 203.761719 87.425781 C 203.421875 87.425781 201.621094 87.988281 201.621094 87.988281 C 201.621094 87.988281 201.285156 87.878906 200.613281 88.667969 C 199.933594 89.460938 198.476562 90.820312 198.136719 91.277344 C 197.800781 91.726562 196.785156 92.855469 196.5625 93.652344 C 196.339844 94.445312 197.011719 97.84375 197.800781 98.636719 Z M 187.6875 103.503906 C 189.59375 103.167969 191.507812 101.015625 191.507812 101.015625 C 190.226562 100.171875 190.671875 97.234375 190.671875 97.234375 C 190.558594 96.214844 192.519531 92.859375 192.519531 92.859375 C 191.507812 93.992188 190.152344 96.484375 189.933594 96.824219 C 189.820312 96.984375 189.722656 97.351562 189.617188 97.820312 C 189.59375 97.941406 189.164062 97.695312 189.039062 97.800781 C 188.980469 97.851562 189.285156 99.613281 189.285156 99.613281 C 189.257812 99.773438 188.695312 101.804688 188.695312 101.804688 C 188.761719 101.984375 184.984375 103.957031 184.984375 103.957031 C 184.984375 103.957031 185.773438 103.839844 187.6875 103.503906 Z M 178.820312 108.835938 C 179.179688 108.972656 180.035156 109.621094 180.035156 109.621094 L 180.367188 110.75 C 180.367188 110.75 183.070312 110.523438 182.960938 109.960938 C 182.847656 109.390625 184.652344 108.488281 185.773438 107.695312 C 186.894531 106.902344 186.332031 106.902344 185.207031 106.449219 C 184.277344 106.074219 184.273438 106.398438 183.335938 106.90625 C 183.265625 106.949219 182.832031 106.386719 182.746094 106.429688 C 182.648438 106.480469 182.890625 107.128906 182.777344 107.175781 C 182.726562 107.195312 182.671875 107.222656 182.621094 107.242188 C 181.859375 107.546875 181.511719 107.535156 181.296875 107.308594 C 181.234375 107.246094 182.148438 106.398438 182.097656 106.300781 C 182.050781 106.195312 181.042969 106.832031 180.988281 106.691406 C 180.894531 106.429688 180.777344 106.113281 180.597656 105.765625 C 179.925781 104.523438 177.769531 105.910156 176.648438 105.457031 C 175.519531 105.007812 175.878906 104.40625 175.878906 104.40625 L 174.976562 105.199219 C 174.976562 105.199219 177.226562 105.996094 178.015625 105.765625 C 178.800781 105.542969 179.695312 106.449219 180.035156 107.128906 C 180.371094 107.808594 180.035156 108.144531 179.363281 108.597656 C 179.121094 108.757812 178.949219 108.816406 178.820312 108.835938 C 178.816406 108.832031 178.804688 108.828125 178.796875 108.824219 " fill-opacity="1" fill-rule="nonzero"/><g clip-path="url(#ffc4d58beb)"><g clip-path="url(#3cfdc645c0)"><g clip-path="url(#c7ac9ebd60)"><g clip-path="url(#9c40d79fcf)"><path fill="#100f0d" d="M 288.011719 238.976562 C 287.949219 238.984375 287.898438 239.019531 287.871094 239.070312 C 286.378906 241.570312 287.269531 245.363281 287.3125 245.535156 C 288.636719 250.03125 288.046875 251.191406 287.980469 251.300781 C 285.535156 253.410156 282.078125 259.382812 281.933594 259.632812 C 281.882812 259.71875 281.902344 259.824219 281.972656 259.890625 C 282.035156 259.941406 282.117188 259.957031 282.191406 259.925781 C 282.203125 259.917969 282.21875 259.910156 282.230469 259.902344 L 292.113281 252.636719 C 292.175781 252.59375 292.207031 252.519531 292.195312 252.441406 C 292.15625 252.175781 291.273438 245.820312 290.617188 244.117188 C 290.011719 242.53125 290.894531 241.007812 290.902344 240.992188 C 290.941406 240.925781 290.941406 240.84375 290.902344 240.78125 C 289.613281 238.726562 288.074219 238.964844 288.011719 238.976562 " fill-opacity="1" fill-rule="nonzero"/></g></g></g></g><g clip-path="url(#e502306e71)"><g clip-path="url(#0af51e18bb)"><g clip-path="url(#3bfda1a085)"><g clip-path="url(#e692dffda8)"><path fill="#100f0d" d="M 291.109375 253.761719 C 287.636719 257.242188 282.210938 260.425781 280.609375 261.328125 C 281.851562 258.003906 286.125 253.277344 286.167969 253.226562 C 286.230469 253.160156 286.238281 253.054688 286.1875 252.976562 C 286.136719 252.898438 286.039062 252.867188 285.949219 252.898438 C 281.910156 254.3125 271.914062 256.679688 271.808594 256.703125 C 271.003906 256.917969 270.191406 257.199219 269.394531 257.546875 C 260.53125 261.386719 253.75 272.871094 249.621094 281.828125 C 245.160156 291.515625 242.75 300.414062 242.730469 300.503906 C 242.714844 300.546875 242.71875 300.59375 242.738281 300.636719 C 242.902344 301.011719 243.332031 301.359375 244.46875 300.867188 C 244.917969 300.671875 245.300781 300.421875 245.378906 300.371094 C 271.601562 288.371094 291.160156 271.34375 291.359375 271.167969 C 295.746094 267.15625 294.949219 263.28125 294.90625 263.09375 L 291.445312 253.835938 C 291.417969 253.769531 291.363281 253.71875 291.296875 253.707031 C 291.226562 253.691406 291.15625 253.710938 291.109375 253.761719 " fill-opacity="1" fill-rule="nonzero"/></g></g></g></g><g clip-path="url(#90974a64f2)"><g clip-path="url(#93708af883)"><g clip-path="url(#ed888b4ae8)"><g clip-path="url(#89db338929)"><path fill="#100f0d" d="M 308.804688 213.070312 C 307.824219 212.378906 306.898438 211.726562 305.539062 212.316406 C 303.664062 213.128906 300.972656 216.292969 295.933594 223.609375 L 291.589844 230.523438 L 286.878906 238.144531 C 286.832031 238.222656 286.839844 238.320312 286.902344 238.390625 C 286.960938 238.457031 287.066406 238.476562 287.140625 238.441406 L 287.179688 238.421875 C 289.300781 237.5 291.90625 240.527344 291.929688 240.558594 C 291.96875 240.605469 292.027344 240.628906 292.089844 240.632812 C 292.117188 240.628906 292.144531 240.625 292.167969 240.613281 C 292.199219 240.601562 292.222656 240.582031 292.246094 240.558594 C 292.308594 240.480469 298.707031 232.75 304.15625 225.496094 C 308.273438 220.015625 310.304688 216.863281 309.984375 214.824219 C 309.871094 214.125 309.488281 213.550781 308.804688 213.070312 " fill-opacity="1" fill-rule="nonzero"/></g></g></g></g><g clip-path="url(#eaa3d5bff3)"><path fill="#000000" d="M 208.273438 173.175781 C 208.273438 173.175781 208.273438 173.175781 208.273438 173.179688 C 208.273438 175.097656 206.710938 176.664062 204.789062 176.664062 C 204.59375 176.664062 204.410156 176.644531 204.226562 176.613281 C 202.570312 176.347656 201.304688 174.910156 201.304688 173.179688 C 201.304688 173.175781 201.304688 173.175781 201.304688 173.175781 C 201.308594 171.445312 202.570312 170.007812 204.226562 169.742188 C 204.410156 169.707031 204.59375 169.691406 204.789062 169.691406 C 204.878906 169.691406 204.964844 169.695312 205.050781 169.703125 C 206.761719 169.832031 208.136719 171.203125 208.261719 172.917969 C 208.269531 173.003906 208.273438 173.089844 208.273438 173.175781 Z M 188.511719 182.511719 C 188.585938 182.511719 188.65625 182.515625 188.726562 182.519531 C 190.546875 182.632812 191.996094 184.148438 191.996094 185.996094 C 191.996094 186.03125 191.996094 186.066406 191.992188 186.101562 C 191.933594 187.972656 190.394531 189.480469 188.511719 189.480469 C 187.871094 189.480469 187.269531 189.304688 186.753906 189.003906 C 185.75 188.410156 185.066406 187.335938 185.03125 186.101562 C 185.027344 186.066406 185.027344 186.03125 185.027344 185.996094 C 185.027344 185.746094 185.054688 185.503906 185.105469 185.265625 C 185.3125 184.300781 185.921875 183.480469 186.753906 182.992188 C 187.269531 182.6875 187.871094 182.511719 188.511719 182.511719 Z M 175.53125 208.121094 C 175.523438 208.027344 175.519531 207.925781 175.519531 207.828125 C 175.519531 205.90625 177.078125 204.34375 179.003906 204.34375 C 180.441406 204.34375 181.679688 205.21875 182.207031 206.46875 C 182.386719 206.886719 182.484375 207.347656 182.484375 207.828125 C 182.484375 207.925781 182.480469 208.027344 182.472656 208.121094 C 182.441406 208.496094 182.351562 208.855469 182.207031 209.1875 C 182 209.683594 181.675781 210.117188 181.273438 210.464844 C 180.664062 210.992188 179.871094 211.3125 179.003906 211.3125 C 178.132812 211.3125 177.339844 210.992188 176.730469 210.464844 C 176.054688 209.886719 175.609375 209.058594 175.53125 208.121094 Z M 219.007812 203.578125 C 219.480469 202.492188 220.488281 201.699219 221.695312 201.523438 C 221.859375 201.5 222.027344 201.484375 222.195312 201.484375 C 223.625 201.484375 224.851562 202.347656 225.390625 203.578125 C 225.578125 204.003906 225.683594 204.472656 225.683594 204.96875 C 225.683594 206.023438 225.210938 206.96875 224.46875 207.609375 C 224.230469 207.8125 223.96875 207.984375 223.683594 208.121094 C 223.230469 208.335938 222.726562 208.453125 222.195312 208.453125 C 222.027344 208.453125 221.859375 208.441406 221.695312 208.417969 C 221.347656 208.367188 221.015625 208.265625 220.710938 208.121094 C 220.425781 207.984375 220.160156 207.8125 219.925781 207.609375 C 219.183594 206.964844 218.714844 206.023438 218.714844 204.96875 C 218.714844 204.472656 218.816406 204.003906 219.007812 203.578125 Z M 240.6875 173.175781 L 240.6875 238.011719 C 240.6875 241.636719 237.738281 244.582031 234.113281 244.582031 L 204.222656 244.582031 L 204.222656 227.058594 L 224.46875 227.058594 L 224.46875 212.667969 C 226.769531 211.988281 228.648438 210.300781 229.582031 208.121094 C 229.996094 207.152344 230.226562 206.085938 230.226562 204.96875 C 230.226562 204.496094 230.1875 204.027344 230.105469 203.578125 C 229.445312 199.8125 226.148438 196.941406 222.195312 196.941406 C 222.027344 196.941406 221.863281 196.945312 221.695312 196.957031 C 219.980469 197.0625 218.410156 197.710938 217.152344 198.730469 C 215.675781 199.925781 214.632812 201.632812 214.289062 203.578125 C 214.210938 204.027344 214.167969 204.496094 214.167969 204.96875 C 214.167969 206.085938 214.398438 207.152344 214.816406 208.121094 C 215.332031 209.332031 216.140625 210.390625 217.152344 211.207031 C 217.960938 211.867188 218.898438 212.367188 219.925781 212.671875 L 219.925781 222.515625 L 199.679688 222.515625 L 199.679688 244.582031 L 169.277344 244.582031 L 169.277344 233.640625 L 181.273438 226.191406 L 181.273438 215.527344 C 181.59375 215.433594 181.90625 215.320312 182.207031 215.1875 C 184.417969 214.21875 186.113281 212.285156 186.753906 209.921875 C 186.910156 209.34375 187.003906 208.742188 187.023438 208.121094 C 187.027344 208.023438 187.03125 207.925781 187.03125 207.828125 C 187.03125 207.101562 186.933594 206.402344 186.753906 205.734375 C 186.542969 204.964844 186.222656 204.238281 185.808594 203.578125 C 184.953125 202.210938 183.699219 201.121094 182.207031 200.46875 C 181.226562 200.039062 180.140625 199.800781 179.003906 199.800781 C 176.136719 199.800781 173.617188 201.308594 172.195312 203.578125 C 171.421875 204.8125 170.972656 206.265625 170.972656 207.828125 C 170.972656 207.925781 170.976562 208.023438 170.980469 208.121094 C 171.105469 211.628906 173.496094 214.570312 176.730469 215.527344 L 176.730469 223.664062 L 173.621094 225.59375 L 169.277344 228.289062 L 164.734375 231.113281 L 164.734375 244.582031 L 152.316406 244.582031 C 148.695312 244.582031 145.742188 241.636719 145.742188 238.011719 L 145.742188 173.175781 L 176.324219 173.175781 L 182.117188 181.152344 C 181.089844 182.5 180.484375 184.179688 180.484375 185.996094 C 180.484375 186.03125 180.484375 186.066406 180.484375 186.101562 C 180.507812 187.792969 181.054688 189.363281 181.972656 190.648438 C 182.046875 190.753906 182.125 190.859375 182.207031 190.964844 C 183.332031 192.386719 184.925781 193.421875 186.753906 193.828125 C 187.320312 193.957031 187.90625 194.023438 188.511719 194.023438 C 191.207031 194.023438 193.59375 192.691406 195.050781 190.648438 C 195.96875 189.363281 196.515625 187.792969 196.535156 186.101562 C 196.539062 186.066406 196.539062 186.03125 196.539062 185.996094 C 196.539062 181.570312 192.9375 177.96875 188.511719 177.96875 C 187.90625 177.96875 187.320312 178.035156 186.753906 178.164062 C 186.417969 178.238281 186.089844 178.335938 185.769531 178.449219 L 182.207031 173.546875 L 181.941406 173.175781 L 178.636719 168.628906 L 145.742188 168.628906 L 145.742188 156.210938 C 145.742188 152.589844 148.695312 149.640625 152.316406 149.640625 L 217.152344 149.640625 L 217.152344 157.601562 L 208.625 166.128906 C 207.484375 165.503906 206.175781 165.148438 204.789062 165.148438 C 204.601562 165.148438 204.414062 165.15625 204.226562 165.167969 C 202.507812 165.289062 200.933594 165.953125 199.679688 166.992188 C 199.109375 167.464844 198.601562 168.015625 198.179688 168.628906 C 197.285156 169.921875 196.761719 171.488281 196.761719 173.175781 C 196.761719 173.175781 196.761719 173.175781 196.761719 173.179688 C 196.761719 175.667969 197.898438 177.894531 199.679688 179.367188 C 200.933594 180.40625 202.507812 181.066406 204.226562 181.1875 C 204.414062 181.199219 204.601562 181.207031 204.789062 181.207031 C 209.214844 181.207031 212.816406 177.605469 212.816406 173.179688 C 212.816406 173.175781 212.816406 173.175781 212.816406 173.175781 C 212.816406 171.789062 212.460938 170.480469 211.839844 169.34375 L 211.839844 169.339844 L 221.695312 159.484375 L 221.695312 149.640625 L 234.113281 149.640625 C 237.738281 149.640625 240.6875 152.589844 240.6875 156.210938 Z M 264.839844 173.175781 L 264.839844 168.628906 L 245.230469 168.628906 L 245.230469 156.210938 C 245.230469 150.085938 240.246094 145.097656 234.113281 145.097656 L 221.695312 145.097656 L 221.695312 125.488281 L 217.152344 125.488281 L 217.152344 145.097656 L 204.226562 145.097656 L 204.226562 125.488281 L 199.679688 125.488281 L 199.679688 145.097656 L 186.753906 145.097656 L 186.753906 125.488281 L 182.207031 125.488281 L 182.207031 145.097656 L 169.277344 145.097656 L 169.277344 125.488281 L 164.734375 125.488281 L 164.734375 145.097656 L 152.316406 145.097656 C 146.1875 145.097656 141.199219 150.085938 141.199219 156.210938 L 141.199219 168.628906 L 121.59375 168.628906 L 121.59375 173.175781 L 141.199219 173.175781 L 141.199219 186.101562 L 121.59375 186.101562 L 121.59375 190.648438 L 141.199219 190.648438 L 141.199219 203.578125 L 121.589844 203.578125 L 121.589844 208.121094 L 141.199219 208.121094 L 141.199219 221.050781 L 121.589844 221.050781 L 121.589844 225.59375 L 141.199219 225.59375 L 141.199219 238.011719 C 141.199219 244.140625 146.1875 249.128906 152.316406 249.128906 L 164.734375 249.128906 L 164.734375 268.734375 L 169.277344 268.734375 L 169.277344 249.128906 L 182.207031 249.128906 L 182.207031 268.734375 L 186.753906 268.734375 L 186.753906 249.128906 L 199.679688 249.128906 L 199.679688 268.734375 L 204.226562 268.734375 L 204.226562 249.128906 L 217.152344 249.128906 L 217.152344 268.734375 L 221.695312 268.734375 L 221.695312 249.128906 L 234.113281 249.128906 C 240.246094 249.128906 245.230469 244.140625 245.230469 238.011719 L 245.230469 225.59375 L 264.839844 225.59375 L 264.839844 221.050781 L 245.230469 221.050781 L 245.230469 208.121094 L 264.839844 208.121094 L 264.839844 203.578125 L 245.230469 203.578125 L 245.230469 190.648438 L 264.839844 190.648438 L 264.839844 186.101562 L 245.230469 186.101562 L 245.230469 173.175781 L 264.839844 173.175781 " fill-opacity="1" fill-rule="nonzero"/></g><path fill="#000000" d="M 152.644531 237.765625 C 152.597656 237.765625 152.558594 237.730469 152.558594 237.683594 C 152.558594 237.636719 152.597656 237.597656 152.644531 237.597656 C 152.691406 237.597656 152.730469 237.636719 152.730469 237.683594 C 152.730469 237.730469 152.691406 237.765625 152.644531 237.765625 Z M 152.644531 233.050781 C 150.09375 233.050781 148.015625 235.128906 148.015625 237.683594 C 148.015625 240.234375 150.09375 242.3125 152.644531 242.3125 C 155.199219 242.3125 157.273438 240.234375 157.273438 237.683594 C 157.273438 235.128906 155.199219 233.050781 152.644531 233.050781 " fill-opacity="1" fill-rule="nonzero"/><g clip-path="url(#2ac2799f17)"><path fill="#000000" d="M 96.878906 221.703125 C 94.234375 221.703125 91.597656 221.296875 89.402344 222.425781 C 87.625 223.34375 84.257812 223.261719 82.195312 223.261719 C 81.214844 223.261719 83.101562 225.476562 83.074219 226.226562 C 82.992188 228.390625 87.371094 228.859375 88.707031 229.425781 C 90.765625 230.296875 89.90625 231.695312 90.082031 233.484375 C 90.550781 238.257812 88.789062 241.683594 87.105469 245.945312 C 86.59375 247.234375 85.605469 249.039062 85.726562 250.476562 C 85.953125 253.070312 81.886719 250.066406 80.699219 249.648438 C 78.878906 249.007812 75.472656 248.113281 73.554688 248.898438 C 71.089844 249.902344 72.09375 252.109375 73.394531 253.550781 C 75.886719 256.308594 73.726562 258.476562 74.46875 261.371094 C 74.734375 262.40625 79.320312 267.175781 80.050781 266.542969 C 82.449219 264.476562 79.183594 263.445312 78.335938 261.871094 C 77.953125 261.15625 77.410156 254.136719 77.566406 254.144531 C 78.285156 254.195312 79.886719 255.457031 80.558594 255.785156 C 82.5625 256.757812 84.542969 257.800781 86.34375 259.117188 C 90.203125 260.816406 94.179688 262.367188 98.265625 263.433594 C 103.859375 264.894531 109.042969 265.507812 114.398438 267.996094 C 117.457031 269.421875 116.914062 272.527344 119.214844 274.847656 C 121.507812 277.152344 124.8125 278.613281 127.457031 280.480469 C 129.589844 281.988281 131.46875 284.375 132.660156 286.675781 C 134.042969 289.339844 133.742188 292.90625 134.21875 295.8125 C 134.550781 297.828125 137.046875 299.328125 138.246094 300.910156 C 140.84375 304.332031 140.460938 298.574219 139.40625 298.140625 C 137.417969 297.320312 136.808594 293.289062 136.695312 291.308594 C 136.515625 288.128906 137.789062 285.636719 135.515625 283.15625 C 131.273438 278.523438 127.773438 273.089844 131.027344 266.589844 C 132.382812 263.878906 128.835938 261.453125 132.414062 260.75 C 134.042969 260.433594 135.871094 260.75 137.015625 259.296875 C 138.457031 257.46875 137.472656 255.132812 136.152344 253.546875 C 135.996094 253.308594 135.789062 253.125 135.542969 252.992188 C 135.773438 252.992188 135.519531 256.152344 134.933594 256.554688 C 133.617188 257.460938 131.5625 259.019531 129.886719 259.074219 C 128.449219 259.117188 126.0625 257.523438 125.113281 256.574219 C 124.414062 255.875 121.976562 255.640625 120.992188 255.433594 C 118.589844 254.9375 116.722656 254.5 114.398438 253.550781 C 111.476562 252.363281 108.59375 250.976562 106.019531 249.132812 C 99.804688 244.679688 98.671875 236.953125 99.460938 229.699219 C 99.628906 228.136719 98.929688 225.6875 99.832031 224.355469 C 100.042969 224.039062 101.015625 224.128906 101.390625 223.800781 C 101.863281 223.378906 102.917969 221.804688 103.105469 221.164062 C 103.882812 218.535156 99.671875 221.917969 100.277344 221.878906 C 99.359375 221.9375 101.320312 216.273438 101.433594 216.046875 C 101.660156 215.59375 104.734375 210.164062 102.878906 210.222656 C 101.714844 210.261719 102.289062 213.613281 100.914062 213.339844 C 99.425781 213.042969 97.28125 209.085938 97.929688 207.601562 C 99.074219 204.992188 96.796875 204.421875 96.464844 206.703125 C 96.402344 207.140625 97.511719 210.359375 95.808594 209.878906 C 94.050781 209.378906 94.308594 201.914062 93.457031 201.992188 C 91.96875 202.128906 93.265625 208.738281 92.820312 209.574219 C 92.6875 209.828125 90.527344 207.382812 90.390625 206.796875 C 89.78125 204.207031 89.5 205.171875 88.777344 206.816406 C 87.820312 209 95.1875 212.839844 96.515625 213.613281 C 97.574219 214.226562 98.445312 214.757812 98.808594 215.988281 C 99.125 217.0625 99.507812 218.535156 98.777344 219.546875 C 98.257812 220.265625 96.878906 220.660156 96.878906 221.703125 " fill-opacity="1" fill-rule="nonzero"/></g></svg>